HIERARCHY
ROOT ROOT
{
	OFFSET 0.000000 56.020000 -5.659234
	CHANNELS 6 Xposition Yposition Zposition Xrotation Yrotation Zrotation 
	JOINT C_spine0001_bind_JNT
	{
		OFFSET 0.000000 1.618999 0.000000
		CHANNELS 3 Xrotation Yrotation Zrotation
		JOINT C_spine0002_bind_JNT
		{
			OFFSET 0.000000 4.942001 0.000001
			CHANNELS 3 Xrotation Yrotation Zrotation
			JOINT C_spine0003_bind_JNT
			{
				OFFSET 0.000000 4.942001 -0.000000
				CHANNELS 3 Xrotation Yrotation Zrotation
				JOINT C_neck0001_bind_JNT
				{
					OFFSET 0.000000 17.026009 -0.000000
					CHANNELS 3 Xrotation Yrotation Zrotation
					JOINT C_neck0002_bind_JNT
					{
						OFFSET 0.000000 3.249985 0.000000
						CHANNELS 3 Xrotation Yrotation Zrotation
						JOINT C_head_bind_JNT
						{
							OFFSET 0.000000 5.278008 0.000000
							CHANNELS 3 Xrotation Yrotation Zrotation
							End Site
							{
								OFFSET 0.000000 0.000000 0.000000
							}
						}
					}
				}
				JOINT L_clavicle_bind_JNT
				{
					OFFSET 4.590000 12.067001 0.834000
					CHANNELS 3 Xrotation Yrotation Zrotation
					JOINT L_armUpper0001_bind_JNT
					{
						OFFSET 7.812635 0.512001 -3.452945
						CHANNELS 3 Xrotation Yrotation Zrotation
						JOINT L_armLower0001_bind_JNT
						{
							OFFSET 15.265892 -6.552116 -0.058157
							CHANNELS 3 Xrotation Yrotation Zrotation
							JOINT L_hand0001_bind_JNT
							{
								OFFSET 14.747667 -6.369995 5.049225
								CHANNELS 3 Xrotation Yrotation Zrotation
								End Site
								{
									OFFSET 0.000000 0.000000 0.000000
								}
							}
						}
					}
				}
				JOINT R_clavicle_bind_JNT
				{
					OFFSET -4.590000 12.067001 0.834000
					CHANNELS 3 Xrotation Yrotation Zrotation
					JOINT R_armUpper0001_bind_JNT
					{
						OFFSET -7.812635 0.512001 -3.452945
						CHANNELS 3 Xrotation Yrotation Zrotation
						JOINT R_armLower0001_bind_JNT
						{
							OFFSET -15.265890 -6.552124 -0.058160
							CHANNELS 3 Xrotation Yrotation Zrotation
							JOINT R_hand0001_bind_JNT
							{
								OFFSET -14.746784 -6.369629 5.048937
								CHANNELS 3 Xrotation Yrotation Zrotation
								End Site
								{
									OFFSET 0.000000 0.000000 0.000000
								}
							}
						}
					}
				}
			}
		}
	}
	JOINT C_pelvis0001_bind_JNT
	{
		OFFSET -0.000000 0.000000 0.000000
		CHANNELS 3 Xrotation Yrotation Zrotation
		JOINT L_legUpper0001_bind_JNT
		{
			OFFSET 6.599999 -6.027000 0.539000
			CHANNELS 3 Xrotation Yrotation Zrotation
			JOINT L_legLower0001_bind_JNT
			{
				OFFSET -0.140713 -19.187443 0.040261
				CHANNELS 3 Xrotation Yrotation Zrotation
				JOINT L_foot0001_bind_JNT
				{
					OFFSET -0.132215 -18.028637 -1.138370
					CHANNELS 3 Xrotation Yrotation Zrotation
					JOINT L_foot0002_bind_JNT
					{
						OFFSET 0.007014 -4.693133 9.886524
						CHANNELS 3 Xrotation Yrotation Zrotation
						End Site
						{
							OFFSET 0.000000 0.000000 0.000000
						}
					}
				}
			}
		}
		JOINT R_legUpper0001_bind_JNT
		{
			OFFSET -6.599999 -6.027000 0.539000
			CHANNELS 3 Xrotation Yrotation Zrotation
			JOINT R_legLower0001_bind_JNT
			{
				OFFSET 0.140710 -19.187164 0.040550
				CHANNELS 3 Xrotation Yrotation Zrotation
				JOINT R_foot0001_bind_JNT
				{
					OFFSET 0.132215 -18.028633 -1.138362
					CHANNELS 3 Xrotation Yrotation Zrotation
					JOINT R_foot0002_bind_JNT
					{
						OFFSET -0.007014 -4.693128 9.886505
						CHANNELS 3 Xrotation Yrotation Zrotation
						End Site
						{
							OFFSET 0.000000 0.000000 0.000000
						}
					}
				}
			}
		}
	}
}
MOTION
Frames: 9
Frame Time: 0.033333
0.000000 49.004429 0.000000 -0.000147 -20.110022 -0.038683 0.555933 20.304966 0.994669 -3.613645 0.155297 0.628224 4.131956 0.064042 -0.096345 14.778108 0.473866 0.364594 -0.036684 0.279662 0.088792 -9.465678 0.983170 0.402396 15.119576 3.475819 20.933647 -28.007893 -7.939615 -79.390244 16.090219 6.795097 -10.264461 -10.557187 -14.425653 -29.261587 15.671959 -5.714640 -19.740580 -30.293400 6.845438 83.121414 9.169723 -13.482856 6.784036 -4.805864 15.579625 24.524151 1.477469 19.497198 -1.250479 -1.013721 -1.302358 0.748515 4.168995 1.887037 -1.544896 -3.779021 3.794362 -1.257069 -1.002165 0.470101 0.600786 0.733038 1.481331 0.655126 1.829994 -3.062484 0.785534 -2.260659 -13.646804 -1.202342 -1.998326 -1.150653 -0.085756 
-0.077969 48.999958 -0.056022 0.005697 -19.529997 -0.012172 0.483575 19.614054 1.077054 -3.676596 0.108277 0.656272 3.948980 0.171593 -0.206706 15.025965 0.759189 0.225854 0.109035 -0.135295 -0.068805 -9.498550 1.138983 0.778378 15.760841 3.597033 20.905764 -27.488361 -7.725643 -79.912285 16.064596 6.273391 -9.429394 -11.220084 -14.555458 -30.030209 16.340878 -5.806374 -20.052904 -30.446198 6.090187 83.411240 9.834136 -13.163165 6.450511 -4.209013 14.733085 24.488113 1.209574 18.710985 -1.282208 -0.833095 -1.358602 0.989614 4.109690 2.338277 -1.502649 -3.271516 4.022525 -1.653201 -1.183779 0.728544 0.518982 0.882845 2.428058 1.214636 1.897053 -3.454936 0.628714 -2.144362 -13.803805 -1.665443 -1.903580 -1.181172 0.080816 
-0.076947 49.036739 -0.121265 0.005331 -19.621021 -0.021024 0.393948 19.827524 1.118396 -3.617242 0.119310 0.727910 4.205078 0.263694 -0.296581 14.659901 0.737243 0.401668 0.117167 -0.038279 -0.101390 -9.826983 1.267246 0.733964 15.522994 3.490019 21.152344 -27.570557 -7.538209 -79.771713 16.107450 6.652889 -9.692933 -11.444408 -14.790682 -30.174862 16.258821 -6.006759 -20.047894 -30.733896 6.229632 83.814583 9.408324 -13.328592 6.443105 -4.127975 14.596534 24.197657 1.205571 18.922094 -1.366589 -0.902181 -1.374655 0.921149 3.931126 2.322252 -1.401147 -3.138421 4.166612 -1.493505 -1.038937 0.530065 0.534179 1.063489 2.316956 1.177124 1.619017 -3.512997 0.834985 -2.067394 -14.077484 -1.695205 -1.851984 -1.232150 0.004640 
-0.064645 49.045467 -0.179826 0.011889 -19.193064 -0.020353 0.480887 19.571188 1.097298 -3.549271 0.091331 0.757301 4.204942 0.181256 -0.239916 14.503347 0.830449 0.319019 0.234894 0.015779 -0.056075 -10.059255 1.309130 0.695131 15.477160 3.616565 21.196123 -27.586983 -7.660228 -80.021255 16.093267 6.600080 -9.583823 -11.525904 -14.998633 -30.229637 16.367308 -5.984656 -20.140751 -31.089087 6.323215 83.865768 9.511009 -13.228573 6.419440 -4.356462 14.486185 24.143417 1.170563 18.665255 -1.318527 -0.867910 -1.634590 0.924302 3.766723 2.401048 -1.413812 -3.093261 4.064365 -1.437940 -0.996514 0.547243 0.494205 1.034879 2.207750 1.099495 1.408509 -3.501799 0.795304 -1.780836 -14.173750 -1.701296 -1.775135 -1.164779 0.027366 
-0.079836 49.051125 -0.227319 0.011056 -19.168465 -0.016983 0.471931 19.654451 1.133516 -3.483935 0.111182 0.724395 4.266335 0.164903 -0.282671 14.542475 0.869161 0.319228 0.127062 0.076268 -0.016274 -10.148846 1.414871 0.681707 15.485435 3.765617 21.210009 -27.835569 -7.811009 -80.089020 16.277151 6.748568 -9.501719 -11.613320 -15.046441 -30.373055 16.371660 -6.036912 -20.085121 -31.310860 6.590677 84.012474 9.471816 -13.283376 6.238748 -4.494228 14.628035 24.092571 1.187619 18.738630 -1.261483 -0.958654 -1.533429 0.924127 3.865296 2.299002 -1.482740 -3.162353 4.088103 -1.454434 -0.935883 0.542747 0.543314 1.071719 2.194684 1.066738 1.206959 -3.496318 0.803383 -1.724094 -14.219500 -1.711642 -1.669985 -1.127207 -0.026177 
-0.089801 49.060135 -0.265366 0.009386 -19.100632 -0.022124 0.460227 19.739300 1.176198 -3.462885 0.133678 0.702894 4.351258 0.137259 -0.248788 14.475387 0.916816 0.308211 0.183962 0.025361 -0.020967 -10.206264 1.420487 0.703496 15.407265 3.771128 21.220409 -27.891758 -7.858500 -80.129822 16.317368 6.722119 -9.524374 -11.532539 -15.076192 -30.392616 16.402779 -6.065729 -20.129021 -31.388788 6.555734 84.001312 9.480784 -13.293773 6.243834 -4.486517 14.695771 24.163343 1.122510 18.822989 -1.212672 -0.903988 -1.617698 0.914277 3.878276 2.306993 -1.466588 -3.171939 4.078456 -1.500057 -0.977544 0.528447 0.557169 1.078442 2.190124 1.005639 1.187124 -3.523244 0.813605 -1.655388 -14.130096 -1.716719 -1.668516 -1.126123 0.037387 
-0.109622 49.070454 -0.289336 0.007932 -18.938902 -0.021260 0.439469 19.793509 1.182177 -3.376516 0.125901 0.742961 4.306453 0.165937 -0.265756 14.587667 0.875710 0.319104 0.146195 0.038713 -0.007419 -10.211694 1.401998 0.683505 15.428228 3.706926 21.312693 -27.940821 -7.892005 -80.187775 16.335548 6.888363 -9.438770 -11.556037 -15.014420 -30.525114 16.404091 -6.206563 -20.051445 -31.472134 6.653689 83.957428 9.410635 -13.298384 6.243263 -4.465762 14.524879 24.251741 1.114913 18.863922 -1.119358 -0.911741 -1.661883 0.887479 3.903676 2.293481 -1.544216 -3.207544 4.087900 -1.460113 -0.940731 0.519518 0.539227 1.019142 2.170194 0.970119 1.204723 -3.484316 0.755428 -1.608940 -14.190561 -1.683263 -1.685695 -1.101184 0.007225 
-0.125299 49.081264 -0.299950 0.011751 -18.755009 -0.022499 0.434100 19.787794 1.242665 -3.365655 0.117803 0.723513 4.324453 0.145327 -0.254047 14.553380 0.891721 0.315306 0.187604 0.055037 -0.058217 -10.119203 1.338983 0.695094 15.369685 3.709002 21.286396 -27.962404 -7.888073 -80.220367 16.426830 7.011097 -9.482277 -11.553420 -15.153206 -30.552538 16.419436 -6.225184 -20.119703 -31.548717 6.682508 83.946243 9.374884 -13.345693 6.267456 -4.422024 14.515150 24.257101 1.087140 18.836777 -1.108998 -0.906717 -1.646973 0.929190 3.921499 2.207362 -1.532891 -3.163723 4.117989 -1.505053 -0.953704 0.542579 0.513784 0.987877 2.214983 0.938749 1.329537 -3.527295 0.799992 -1.625419 -14.146833 -1.668242 -1.705244 -1.118680 0.063548 
-0.145669 49.100285 -0.297892 0.008419 -18.538223 -0.020754 0.438408 19.791430 1.219586 -3.354661 0.118999 0.753988 4.335660 0.151893 -0.267270 14.593240 0.839163 0.319127 0.175299 0.063317 -0.033670 -10.047756 1.362215 0.708001 15.313461 3.738279 21.269857 -28.051008 -7.995661 -80.255356 16.534910 7.119040 -9.462277 -11.604181 -15.082039 -30.552811 16.385256 -6.249853 -20.113876 -31.491377 6.736039 83.903122 9.308146 -13.319270 6.220181 -4.454290 14.453207 24.326405 1.077590 18.837980 -1.126535 -0.912596 -1.661979 0.987567 3.994914 2.186323 -1.536258 -3.195100 4.100461 -1.551092 -0.995690 0.566316 0.535743 0.946747 2.202495 0.971084 1.435126 -3.565999 0.787552 -1.660121 -14.153963 -1.666433 -1.725046 -1.140706 0.078574 
